<svg xmlns="http://www.w3.org/2000/svg" viewBox="0 0 48 48">
  <path fill="#EA4335" d="M24 9.5c3.54 0 6.73 1.22 9.24 3.61l6.9-6.9C35.73 2.47 30.22 0 24 0 14.64 0 6.4 5.4 2.56 13.27l8.06 6.26C12.57 13.73 17.82 9.5 24 9.5z"/>
  <path fill="#4285F4" d="M46.1 24.5c0-1.63-.15-3.2-.43-4.7H24v9h12.45c-.54 2.9-2.2 5.36-4.7 7l7.24 5.63C43.98 37.3 46.1 31.46 46.1 24.5z"/>
  <path fill="#FBBC05" d="M10.62 28.27A14.5 14.5 0 0 1 9.5 24c0-1.48.25-2.9.7-4.27l-8.06-6.26A23.97 23.97 0 0 0 0 24c0 3.77.9 7.33 2.14 10.53l8.48-6.26z"/>
  <path fill="#34A853" d="M24 48c6.22 0 11.73-2.05 15.64-5.57l-7.24-5.63c-2.02 1.36-4.6 2.2-8.4 2.2-6.18 0-11.43-4.23-13.38-9.93l-8.48 6.26C6.4 42.6 14.64 48 24 48z"/>
</svg>